<?xml version="1.0" encoding="utf-8"?>
<!-- Generator: Adobe Illustrator 14.0.0, SVG Export Plug-In . SVG Version: 6.00 Build 43363)  -->
<!DOCTYPE svg PUBLIC "-//W3C//DTD SVG 1.1//EN" "http://www.w3.org/Graphics/SVG/1.1/DTD/svg11.dtd">
<svg version="1.1" xmlns="http://www.w3.org/2000/svg" xmlns:xlink="http://www.w3.org/1999/xlink" x="0px" y="0px" width="612px"
	 height="792px" viewBox="0 0 612 792" enable-background="new 0 0 612 792" xml:space="preserve">
<g id="Guides_For_Artboard">
</g>
<g id="Warstwa_1">
	<g>
		<path fill="#034EA2" d="M61.309,482.975v11.707c0,4.391,1.923,6.264,4.506,6.264c2.841,0,4.707-1.932,4.707-6.264v-11.707h2.526
			v11.531c0,6.059-3.128,8.518-7.319,8.518c-3.961,0-6.946-2.283-6.946-8.43v-11.619H61.309z"/>
		<path fill="#034EA2" d="M77.291,492.369c0-1.492-0.029-2.662-0.115-3.834h2.239l0.144,2.342h0.057
			c0.689-1.316,2.296-2.635,4.592-2.635c1.923,0,4.908,1.172,4.908,6.029v8.43H86.59v-8.166c0-2.283-0.832-4.186-3.214-4.186
			c-1.636,0-2.928,1.201-3.387,2.635c-0.115,0.322-0.172,0.762-0.172,1.199v8.518h-2.526V492.369z"/>
		<path fill="#034EA2" d="M96.029,484.555c0,0.879-0.603,1.582-1.607,1.582c-0.918,0-1.521-0.703-1.521-1.582
			c0-0.877,0.632-1.609,1.579-1.609C95.397,482.945,96.029,483.648,96.029,484.555z M93.216,502.701v-14.166h2.526v14.166H93.216z"
			/>
		<path fill="#034EA2" d="M100.935,488.535l1.866,7.199c0.373,1.582,0.746,3.045,1.005,4.508h0.086
			c0.315-1.434,0.775-2.955,1.234-4.479l2.268-7.229h2.124l2.153,7.084c0.517,1.697,0.918,3.189,1.234,4.623h0.086
			c0.229-1.434,0.603-2.926,1.062-4.594l1.98-7.113h2.497l-4.478,14.166h-2.296l-2.124-6.762c-0.488-1.58-0.89-2.984-1.234-4.652
			h-0.057c-0.344,1.697-0.775,3.16-1.263,4.682l-2.239,6.732h-2.296l-4.19-14.166H100.935z"/>
		<path fill="#034EA2" d="M122.168,496.086c0.058,3.482,2.21,4.918,4.765,4.918c1.808,0,2.928-0.322,3.846-0.732l0.459,1.844
			c-0.89,0.41-2.439,0.908-4.649,0.908c-4.277,0-6.831-2.898-6.831-7.172c0-4.271,2.468-7.609,6.515-7.609
			c4.563,0,5.74,4.039,5.74,6.645c0,0.527-0.028,0.906-0.086,1.199H122.168z M129.574,494.242c0.029-1.609-0.66-4.156-3.501-4.156
			c-2.583,0-3.674,2.371-3.875,4.156H129.574z"/>
		<path fill="#034EA2" d="M135.138,492.955c0-1.668-0.029-3.102-0.115-4.42h2.21l0.115,2.811h0.086
			c0.631-1.902,2.181-3.104,3.875-3.104c0.258,0,0.459,0.029,0.689,0.059v2.43c-0.258-0.059-0.517-0.059-0.861-0.059
			c-1.779,0-3.042,1.346-3.387,3.277c-0.057,0.352-0.086,0.791-0.086,1.201v7.551h-2.526V492.955z"/>
		<path fill="#034EA2" d="M241.104,495.033h0.058c0.344-0.498,0.803-1.113,1.205-1.609l4.104-4.889h3.014l-5.338,5.824l6.113,8.342
			h-3.1l-4.765-6.791l-1.292,1.465v5.326h-2.497v-19.756l2.497,0.029V495.033z"/>
		<path fill="#034EA2" d="M264.636,495.502c0,5.238-3.587,7.521-6.917,7.521c-3.731,0-6.659-2.811-6.659-7.289
			c0-4.711,3.071-7.492,6.888-7.492C261.938,488.242,264.636,491.199,264.636,495.502z M253.643,495.648
			c0,3.102,1.722,5.443,4.19,5.443c2.411,0,4.219-2.312,4.219-5.502c0-2.4-1.177-5.416-4.162-5.416
			C254.935,490.174,253.643,492.984,253.643,495.648z"/>
		<path fill="#034EA2" d="M267.817,492.369c0-1.492-0.029-2.662-0.115-3.834h2.239l0.144,2.342h0.057
			c0.689-1.316,2.296-2.635,4.592-2.635c1.923,0,4.908,1.172,4.908,6.029v8.43h-2.526v-8.166c0-2.283-0.832-4.186-3.214-4.186
			c-1.636,0-2.928,1.201-3.387,2.635c-0.115,0.322-0.172,0.762-0.172,1.199v8.518h-2.526V492.369z"/>
		<path fill="#034EA2" d="M296.313,495.502c0,5.238-3.587,7.521-6.917,7.521c-3.731,0-6.659-2.811-6.659-7.289
			c0-4.711,3.071-7.492,6.888-7.492C293.616,488.242,296.313,491.199,296.313,495.502z M285.321,495.648
			c0,3.102,1.722,5.443,4.19,5.443c2.411,0,4.219-2.312,4.219-5.502c0-2.4-1.177-5.416-4.162-5.416
			C286.612,490.174,285.321,492.984,285.321,495.648z"/>
		<path fill="#034EA2" d="M299.495,492.369c0-1.492-0.058-2.662-0.115-3.834h2.209l0.115,2.312h0.086
			c0.775-1.346,2.066-2.605,4.392-2.605c1.866,0,3.301,1.172,3.903,2.84h0.059c0.43-0.82,1.004-1.404,1.578-1.844
			c0.832-0.645,1.721-0.996,3.041-0.996c1.867,0,4.594,1.23,4.594,6.146v8.312h-2.469v-7.99c0-2.752-1.004-4.361-3.014-4.361
			c-1.465,0-2.555,1.084-3.014,2.312c-0.115,0.381-0.201,0.82-0.201,1.287v8.752h-2.469v-8.488c0-2.254-0.976-3.863-2.898-3.863
			c-1.55,0-2.727,1.289-3.129,2.576c-0.143,0.352-0.201,0.82-0.201,1.258v8.518h-2.468V492.369z"/>
		<path fill="#034EA2" d="M326.238,484.555c0,0.879-0.602,1.582-1.607,1.582c-0.918,0-1.521-0.703-1.521-1.582
			c0-0.877,0.633-1.609,1.58-1.609C325.607,482.945,326.238,483.648,326.238,484.555z M323.426,502.701v-14.166h2.525v14.166
			H323.426z"/>
		<path fill="#034EA2" d="M340.041,502.203c-0.66,0.322-2.123,0.82-3.988,0.82c-4.191,0-6.918-2.898-6.918-7.23
			c0-4.359,2.928-7.551,7.463-7.551c1.492,0,2.812,0.381,3.502,0.762l-0.574,1.961c-0.604-0.322-1.551-0.674-2.928-0.674
			c-3.186,0-4.908,2.43-4.908,5.357c0,3.277,2.066,5.297,4.822,5.297c1.436,0,2.383-0.352,3.1-0.674L340.041,502.203z"/>
		<path fill="#034EA2" d="M341.416,501.209l6.256-8.342c0.633-0.791,1.207-1.463,1.838-2.225v-0.059h-7.52v-2.049h10.562v1.609
			l-6.201,8.225c-0.602,0.791-1.146,1.521-1.779,2.225v0.059h8.094v2.049h-11.25V501.209z"/>
		<path fill="#034EA2" d="M355.275,492.369c0-1.492-0.029-2.662-0.115-3.834h2.238l0.145,2.342h0.057
			c0.689-1.316,2.297-2.635,4.594-2.635c1.922,0,4.906,1.172,4.906,6.029v8.43h-2.525v-8.166c0-2.283-0.832-4.186-3.215-4.186
			c-1.635,0-2.928,1.201-3.387,2.635c-0.113,0.322-0.172,0.762-0.172,1.199v8.518h-2.525V492.369z"/>
		<path fill="#034EA2" d="M372.607,496.086c0.057,3.482,2.209,4.918,4.764,4.918c1.809,0,2.928-0.322,3.846-0.732l0.459,1.844
			c-0.889,0.41-2.439,0.908-4.648,0.908c-4.277,0-6.832-2.898-6.832-7.172c0-4.271,2.469-7.609,6.516-7.609
			c4.564,0,5.74,4.039,5.74,6.645c0,0.527-0.029,0.906-0.086,1.199H372.607z M380.012,494.242c0.029-1.609-0.66-4.156-3.502-4.156
			c-2.582,0-3.674,2.371-3.875,4.156H380.012z"/>
		<path fill="#034EA2" d="M397.459,500.623c0,3.277-0.66,5.238-1.98,6.496c-1.377,1.26-3.33,1.697-5.08,1.697
			c-1.666,0-3.502-0.408-4.621-1.17l0.631-1.99c0.918,0.615,2.354,1.143,4.076,1.143c2.582,0,4.477-1.377,4.477-4.977v-1.551h-0.057
			c-0.746,1.316-2.268,2.371-4.42,2.371c-3.445,0-5.912-2.986-5.912-6.908c0-4.799,3.07-7.492,6.285-7.492
			c2.41,0,3.703,1.26,4.334,2.43h0.057l0.086-2.137h2.24c-0.086,0.996-0.115,2.166-0.115,3.863V500.623z M394.934,494.125
			c0-0.438-0.029-0.818-0.145-1.141c-0.459-1.521-1.664-2.752-3.529-2.752c-2.412,0-4.133,2.078-4.133,5.357
			c0,2.779,1.406,5.092,4.104,5.092c1.578,0,2.984-0.996,3.502-2.635c0.143-0.439,0.201-0.936,0.201-1.375V494.125z"/>
		<path fill="#034EA2" d="M414.188,495.502c0,5.238-3.588,7.521-6.918,7.521c-3.73,0-6.658-2.811-6.658-7.289
			c0-4.711,3.072-7.492,6.889-7.492C411.49,488.242,414.188,491.199,414.188,495.502z M403.195,495.648
			c0,3.102,1.721,5.443,4.189,5.443c2.412,0,4.219-2.312,4.219-5.502c0-2.4-1.176-5.416-4.16-5.416
			C404.486,490.174,403.195,492.984,403.195,495.648z"/>
		<path fill="#034EA2" d="M424.457,488.535l1.865,7.199c0.373,1.582,0.746,3.045,1.004,4.508h0.086
			c0.316-1.434,0.775-2.955,1.234-4.479l2.268-7.229h2.125l2.152,7.084c0.516,1.697,0.918,3.189,1.234,4.623h0.086
			c0.229-1.434,0.602-2.926,1.062-4.594l1.98-7.113h2.496l-4.477,14.166h-2.297l-2.123-6.762c-0.488-1.58-0.891-2.984-1.234-4.652
			h-0.059c-0.344,1.697-0.775,3.16-1.262,4.682l-2.24,6.732h-2.295l-4.191-14.166H424.457z"/>
		<path fill="#034EA2" d="M450.74,482.975h2.498v9.512h0.086c0.516-0.76,1.033-1.463,1.521-2.107l5.912-7.404h3.1l-7.004,8.371
			l7.549,11.355h-2.957l-6.342-9.688l-1.865,2.166v7.521h-2.498V482.975z"/>
		<path fill="#034EA2" d="M466.494,492.955c0-1.668-0.029-3.102-0.115-4.42h2.209l0.115,2.811h0.086
			c0.631-1.902,2.182-3.104,3.875-3.104c0.258,0,0.459,0.029,0.689,0.059v2.43c-0.26-0.059-0.518-0.059-0.861-0.059
			c-1.779,0-3.043,1.346-3.387,3.277c-0.059,0.352-0.086,0.791-0.086,1.201v7.551h-2.525V492.955z"/>
		<path fill="#034EA2" d="M485.49,499.307c0,1.229,0.059,2.428,0.201,3.395h-2.268l-0.201-1.785h-0.086
			c-0.773,1.111-2.268,2.107-4.248,2.107c-2.812,0-4.246-2.02-4.246-4.068c0-3.424,2.984-5.297,8.352-5.268v-0.293
			c0-1.143-0.316-3.279-3.158-3.25c-1.32,0-2.668,0.381-3.645,1.055l-0.574-1.727c1.148-0.732,2.842-1.23,4.592-1.23
			c4.248,0,5.281,2.957,5.281,5.766V499.307z M483.051,495.473c-2.754-0.059-5.883,0.438-5.883,3.189
			c0,1.697,1.09,2.459,2.354,2.459c1.836,0,3.014-1.172,3.416-2.371c0.086-0.293,0.113-0.586,0.113-0.82V495.473z"/>
		<path fill="#034EA2" d="M492.059,495.033h0.059c0.344-0.498,0.803-1.113,1.205-1.609l4.105-4.889h3.014l-5.34,5.824l6.113,8.342
			h-3.1l-4.764-6.791l-1.293,1.465v5.326h-2.496v-19.727h2.496V495.033z"/>
		<path fill="#034EA2" d="M515.592,495.502c0,5.238-3.588,7.521-6.918,7.521c-3.73,0-6.658-2.811-6.658-7.289
			c0-4.711,3.07-7.492,6.889-7.492C512.893,488.242,515.592,491.199,515.592,495.502z M504.598,495.648
			c0,3.102,1.723,5.443,4.191,5.443c2.41,0,4.219-2.312,4.219-5.502c0-2.4-1.178-5.416-4.162-5.416
			C505.891,490.174,504.598,492.984,504.598,495.648z"/>
		<path fill="#034EA2" d="M519.576,488.535l1.867,7.199c0.373,1.582,0.746,3.045,1.004,4.508h0.086
			c0.316-1.434,0.775-2.955,1.234-4.479l2.268-7.229h2.123l2.152,7.084c0.518,1.697,0.92,3.189,1.234,4.623h0.086
			c0.23-1.434,0.604-2.926,1.062-4.594l1.98-7.113h2.498l-4.479,14.166h-2.297l-2.123-6.762c-0.488-1.58-0.891-2.984-1.234-4.652
			h-0.057c-0.346,1.697-0.775,3.16-1.264,4.682l-2.238,6.732h-2.297l-4.189-14.166H519.576z"/>
		<path fill="#034EA2" d="M542.504,484.555c0,0.879-0.602,1.582-1.607,1.582c-0.918,0-1.521-0.703-1.521-1.582
			c0-0.877,0.633-1.609,1.58-1.609C541.873,482.945,542.504,483.648,542.504,484.555z M539.691,502.701v-14.166h2.525v14.166
			H539.691z"/>
		<path fill="#034EA2" d="M547.812,496.086c0.057,3.482,2.209,4.918,4.764,4.918c1.809,0,2.928-0.322,3.846-0.732l0.459,1.844
			c-0.889,0.41-2.439,0.908-4.648,0.908c-4.277,0-6.832-2.898-6.832-7.172c0-4.271,2.469-7.609,6.516-7.609
			c4.564,0,5.74,4.039,5.74,6.645c0,0.527-0.029,0.906-0.086,1.199H547.812z M555.217,494.242c0.029-1.609-0.66-4.156-3.502-4.156
			c-2.582,0-3.674,2.371-3.875,4.156H555.217z"/>
		<path fill-rule="evenodd" clip-rule="evenodd" fill="#034EA2" d="M58.784,290.142h498.898v181.418H58.784V290.142L58.784,290.142z
			 M87.162,447.811L87.162,447.811h28.262V394.77l90.32,53.041h28.818V338.803h60.361l-50.55,84.525v24.482H489.77
			c24.914,0.344,34.846-5.795,38.189-14.988c4.657-12.809-3.465-22.107-11.248-32.732l-36.112-49.31
			c-4.279-6.866-3.605-11.977,11.045-11.977h37.113v-0.284h0.014v-24.483c-0.005,0-0.01,0-0.014,0v-0.085
			c-34.18,0-68.361,0.086-102.534,0.086c-47.73-2.402-42.088,26.825-26.941,47.721l34.656,47.807
			c6.198,8.551,5.734,13.764-6.047,13.764h-97.284l50.01-84.525V313.95H205.744v54.852l-90.32-54.852H87.162V447.811z"/>
		<path fill="#034EA2" d="M144.176,500.096c0.775,0.469,2.095,0.996,3.358,0.996c1.808,0,2.669-0.908,2.669-2.107
			c0-1.23-0.718-1.873-2.555-2.576c-2.526-0.936-3.703-2.312-3.703-4.01c0-2.283,1.837-4.156,4.793-4.156
			c1.406,0,2.641,0.381,3.387,0.879l-0.603,1.873c-0.545-0.352-1.55-0.85-2.842-0.85c-1.492,0-2.296,0.879-2.296,1.932
			c0,1.172,0.804,1.699,2.612,2.43c2.382,0.908,3.645,2.137,3.645,4.244c0,2.518-1.923,4.273-5.166,4.273
			c-1.521,0-2.928-0.41-3.904-0.996L144.176,500.096z"/>
		<path fill="#034EA2" d="M156.802,488.535l3.014,8.371c0.344,0.936,0.689,2.049,0.918,2.896h0.058
			c0.258-0.848,0.545-1.932,0.89-2.955l2.755-8.312h2.669l-3.789,10.098c-1.808,4.857-3.042,7.316-4.764,8.867
			c-1.263,1.084-2.468,1.521-3.1,1.639l-0.631-2.137c0.631-0.203,1.464-0.613,2.21-1.258c0.689-0.557,1.521-1.551,2.124-2.867
			c0.115-0.264,0.201-0.469,0.201-0.615s-0.058-0.352-0.201-0.674l-5.109-13.053H156.802z"/>
		<path fill="#034EA2" d="M172.44,485.141v3.395h3.616v1.961h-3.616v7.639c0,1.756,0.488,2.752,1.894,2.752
			c0.689,0,1.091-0.059,1.464-0.176l0.115,1.961c-0.488,0.176-1.263,0.352-2.239,0.352c-1.177,0-2.124-0.41-2.727-1.084
			c-0.689-0.789-0.976-2.049-0.976-3.717v-7.727h-2.153v-1.961h2.153v-2.633L172.44,485.141z"/>
		<path fill="#034EA2" d="M180.129,496.086c0.058,3.482,2.21,4.918,4.765,4.918c1.808,0,2.928-0.322,3.846-0.732l0.459,1.844
			c-0.89,0.41-2.439,0.908-4.649,0.908c-4.277,0-6.831-2.898-6.831-7.172c0-4.271,2.468-7.609,6.515-7.609
			c4.563,0,5.74,4.039,5.74,6.645c0,0.527-0.028,0.906-0.086,1.199H180.129z M187.535,494.242c0.029-1.609-0.66-4.156-3.501-4.156
			c-2.583,0-3.674,2.371-3.875,4.156H187.535z"/>
		<path fill="#034EA2" d="M196.141,485.141v3.395h3.616v1.961h-3.616v7.639c0,1.756,0.488,2.752,1.894,2.752
			c0.689,0,1.091-0.059,1.464-0.176l0.115,1.961c-0.488,0.176-1.263,0.352-2.239,0.352c-1.177,0-2.124-0.41-2.727-1.084
			c-0.689-0.789-0.976-2.049-0.976-3.717v-7.727h-2.153v-1.961h2.153v-2.633L196.141,485.141z"/>
		<path fill="#034EA2" d="M214.22,498.809c0,1.492,0.029,2.779,0.115,3.893h-2.239l-0.144-2.312h-0.058
			c-0.631,1.141-2.124,2.635-4.592,2.635c-2.181,0-4.793-1.26-4.793-6.205v-8.283h2.525v7.814c0,2.693,0.833,4.537,3.1,4.537
			c1.693,0,2.87-1.201,3.329-2.371c0.144-0.352,0.23-0.82,0.23-1.316v-8.664h2.525V498.809z"/>
		<path fill="#034EA2" d="M234.564,493.453h-7.491v7.111h8.381v2.137h-10.906v-19.727h10.476v2.137h-7.951v6.234h7.491V493.453z"/>
		<g>
			<g>
				<path fill="#034EA2" d="M58.814,278.794v-19.726h2.971l6.653,9.98c1.517,2.312,2.754,4.39,3.713,6.409l0.093-0.029
					c-0.248-2.634-0.309-5.034-0.309-8.107v-8.253h2.537v19.726H71.75l-6.622-10.009c-1.455-2.195-2.847-4.448-3.868-6.585
					l-0.093,0.029c0.155,2.488,0.186,4.858,0.186,8.136v8.429H58.814z"/>
				<path fill="#034EA2" d="M84.715,260.649c0,0.878-0.65,1.58-1.733,1.58c-0.99,0-1.64-0.702-1.64-1.58s0.681-1.61,1.702-1.61
					C84.035,259.04,84.715,259.742,84.715,260.649z M81.683,278.794v-14.165h2.723v14.165H81.683z"/>
				<path fill="#034EA2" d="M92.73,272.18c0.062,3.483,2.383,4.917,5.137,4.917c1.95,0,3.156-0.322,4.146-0.732l0.495,1.844
					c-0.959,0.41-2.63,0.907-5.013,0.907c-4.61,0-7.365-2.897-7.365-7.17s2.662-7.609,7.024-7.609c4.92,0,6.189,4.039,6.189,6.644
					c0,0.527-0.031,0.907-0.093,1.2H92.73z M100.714,270.336c0.031-1.609-0.712-4.156-3.775-4.156c-2.785,0-3.961,2.371-4.178,4.156
					H100.714z"/>
				<path fill="#034EA2" d="M107.305,277.302l6.746-8.341c0.681-0.79,1.3-1.463,1.98-2.224v-0.059h-8.107v-2.049h11.388v1.61
					l-6.684,8.224c-0.65,0.791-1.238,1.522-1.918,2.224v0.059h8.727v2.049h-12.13V277.302z"/>
				<path fill="#034EA2" d="M135.063,275.399c0,1.229,0.062,2.429,0.216,3.395h-2.444l-0.217-1.785h-0.093
					c-0.835,1.112-2.444,2.107-4.58,2.107c-3.033,0-4.58-2.019-4.58-4.068c0-3.424,3.218-5.297,9.005-5.268v-0.292
					c0-1.142-0.34-3.278-3.404-3.249c-1.423,0-2.878,0.38-3.93,1.054l-0.619-1.727c1.238-0.731,3.063-1.229,4.951-1.229
					c4.58,0,5.694,2.956,5.694,5.766V275.399z M132.433,271.565c-2.971-0.058-6.344,0.439-6.344,3.19
					c0,1.697,1.176,2.458,2.538,2.458c1.98,0,3.249-1.17,3.682-2.371c0.093-0.292,0.124-0.585,0.124-0.819V271.565z"/>
				<path fill="#034EA2" d="M141.747,259.07h2.723v19.725h-2.723V259.07z"/>
				<path fill="#034EA2" d="M152.856,272.18c0.062,3.483,2.383,4.917,5.137,4.917c1.95,0,3.156-0.322,4.146-0.732l0.495,1.844
					c-0.959,0.41-2.63,0.907-5.013,0.907c-4.611,0-7.365-2.897-7.365-7.17s2.661-7.609,7.024-7.609c4.92,0,6.189,4.039,6.189,6.644
					c0,0.527-0.031,0.907-0.093,1.2H152.856z M160.84,270.336c0.031-1.609-0.711-4.156-3.775-4.156
					c-2.785,0-3.961,2.371-4.178,4.156H160.84z"/>
				<path fill="#034EA2" d="M167.431,277.302l6.746-8.341c0.681-0.79,1.3-1.463,1.98-2.224v-0.059h-8.107v-2.049h11.388v1.61
					l-6.684,8.224c-0.65,0.791-1.238,1.522-1.918,2.224v0.059h8.727v2.049h-12.13V277.302z M172.011,260.62
					c0-0.849,0.712-1.522,1.578-1.522c0.867,0,1.517,0.673,1.517,1.522c0,0.79-0.619,1.493-1.547,1.493
					C172.661,262.113,172.011,261.41,172.011,260.62z"/>
				<path fill="#034EA2" d="M184.667,268.463c0-1.493-0.031-2.663-0.124-3.834h2.414l0.155,2.341h0.062
					c0.743-1.317,2.476-2.634,4.951-2.634c2.073,0,5.292,1.17,5.292,6.029v8.429h-2.723v-8.166c0-2.283-0.897-4.185-3.466-4.185
					c-1.764,0-3.156,1.2-3.651,2.634c-0.124,0.322-0.186,0.761-0.186,1.2v8.517h-2.723V268.463z"/>
				<path fill="#034EA2" d="M205.648,272.18c0.062,3.483,2.383,4.917,5.137,4.917c1.95,0,3.156-0.322,4.146-0.732l0.495,1.844
					c-0.959,0.41-2.63,0.907-5.013,0.907c-4.611,0-7.365-2.897-7.365-7.17s2.661-7.609,7.024-7.609c4.92,0,6.189,4.039,6.189,6.644
					c0,0.527-0.031,0.907-0.093,1.2H205.648z M213.632,270.336c0.031-1.609-0.711-4.156-3.775-4.156
					c-2.785,0-3.961,2.371-4.178,4.156H213.632z"/>
				<path fill="#034EA2" d="M229.785,277.302l11.542-16.009v-0.087h-10.552v-2.137h14.08v1.551l-11.512,15.95v0.088h11.667v2.136
					h-15.225V277.302z"/>
				<path fill="#034EA2" d="M250.518,269.049c0-1.668-0.031-3.103-0.124-4.419h2.383l0.124,2.81h0.093
					c0.681-1.902,2.352-3.102,4.178-3.102c0.278,0,0.495,0.029,0.743,0.059v2.429c-0.278-0.059-0.557-0.059-0.928-0.059
					c-1.918,0-3.28,1.346-3.652,3.278c-0.062,0.351-0.093,0.79-0.093,1.2v7.551h-2.723V269.049z"/>
				<path fill="#034EA2" d="M261.503,277.302l6.746-8.341c0.681-0.79,1.3-1.463,1.98-2.224v-0.059h-8.107v-2.049h11.388v1.61
					l-6.684,8.224c-0.65,0.791-1.238,1.522-1.918,2.224v0.059h8.727v2.049h-12.13V277.302z"/>
				<path fill="#034EA2" d="M280.04,272.18c0.062,3.483,2.383,4.917,5.137,4.917c1.95,0,3.156-0.322,4.146-0.732l0.495,1.844
					c-0.959,0.41-2.63,0.907-5.013,0.907c-4.611,0-7.365-2.897-7.365-7.17s2.661-7.609,7.024-7.609c4.92,0,6.189,4.039,6.189,6.644
					c0,0.527-0.031,0.907-0.093,1.2H280.04z M288.023,270.336c0.031-1.609-0.711-4.156-3.775-4.156
					c-2.785,0-3.961,2.371-4.178,4.156H288.023z"/>
				<path fill="#034EA2" d="M295.945,276.19c0.835,0.468,2.259,0.995,3.621,0.995c1.95,0,2.877-0.907,2.877-2.107
					c0-1.229-0.773-1.873-2.754-2.576c-2.723-0.937-3.992-2.312-3.992-4.009c0-2.283,1.98-4.156,5.167-4.156
					c1.517,0,2.848,0.38,3.652,0.878l-0.65,1.873c-0.588-0.351-1.671-0.849-3.063-0.849c-1.609,0-2.476,0.878-2.476,1.932
					c0,1.17,0.866,1.697,2.816,2.429c2.568,0.907,3.93,2.136,3.93,4.243c0,2.517-2.074,4.273-5.57,4.273
					c-1.64,0-3.156-0.41-4.208-0.995L295.945,276.19z"/>
				<path fill="#034EA2" d="M309.159,277.302l6.746-8.341c0.681-0.79,1.3-1.463,1.98-2.224v-0.059h-8.108v-2.049h11.389v1.61
					l-6.685,8.224c-0.649,0.791-1.237,1.522-1.918,2.224v0.059h8.726v2.049h-12.13V277.302z"/>
				<path fill="#034EA2" d="M327.695,272.18c0.062,3.483,2.383,4.917,5.137,4.917c1.949,0,3.156-0.322,4.146-0.732l0.495,1.844
					c-0.959,0.41-2.63,0.907-5.013,0.907c-4.611,0-7.365-2.897-7.365-7.17s2.661-7.609,7.024-7.609c4.92,0,6.189,4.039,6.189,6.644
					c0,0.527-0.031,0.907-0.093,1.2H327.695z M335.679,270.336c0.031-1.609-0.712-4.156-3.775-4.156
					c-2.785,0-3.961,2.371-4.177,4.156H335.679z"/>
				<path fill="#034EA2" d="M343.973,268.463c0-1.493-0.03-2.663-0.124-3.834h2.414l0.154,2.341h0.062
					c0.742-1.317,2.476-2.634,4.951-2.634c2.073,0,5.291,1.17,5.291,6.029v8.429h-2.723v-8.166c0-2.283-0.897-4.185-3.466-4.185
					c-1.764,0-3.156,1.2-3.651,2.634c-0.124,0.322-0.186,0.761-0.186,1.2v8.517h-2.724V268.463z"/>
				<path fill="#034EA2" d="M366.47,260.649c0,0.878-0.65,1.58-1.733,1.58c-0.99,0-1.64-0.702-1.64-1.58s0.681-1.61,1.701-1.61
					C365.788,259.04,366.47,259.742,366.47,260.649z M363.437,278.794v-14.165h2.724v14.165H363.437z"/>
				<path fill="#034EA2" d="M374.484,272.18c0.062,3.483,2.383,4.917,5.137,4.917c1.949,0,3.156-0.322,4.146-0.732l0.495,1.844
					c-0.959,0.41-2.63,0.907-5.013,0.907c-4.611,0-7.365-2.897-7.365-7.17s2.661-7.609,7.024-7.609c4.92,0,6.189,4.039,6.189,6.644
					c0,0.527-0.031,0.907-0.093,1.2H374.484z M382.468,270.336c0.031-1.609-0.712-4.156-3.775-4.156
					c-2.785,0-3.961,2.371-4.177,4.156H382.468z"/>
				<path fill="#034EA2" d="M399.797,275.692c1.206,0.731,2.939,1.288,4.796,1.288c2.754,0,4.363-1.375,4.363-3.366
					c0-1.814-1.114-2.897-3.93-3.893c-3.404-1.17-5.508-2.868-5.508-5.619c0-3.073,2.691-5.355,6.745-5.355
					c2.104,0,3.683,0.468,4.58,0.966l-0.742,2.078c-0.65-0.38-2.043-0.937-3.931-0.937c-2.847,0-3.93,1.61-3.93,2.956
					c0,1.844,1.269,2.751,4.146,3.805c3.527,1.288,5.292,2.897,5.292,5.795c0,3.043-2.353,5.707-7.272,5.707
					c-2.012,0-4.208-0.585-5.322-1.288L399.797,275.692z"/>
				<path fill="#034EA2" d="M420.778,261.235v3.395h3.899v1.961h-3.899v7.639c0,1.756,0.526,2.751,2.042,2.751
					c0.743,0,1.177-0.059,1.579-0.176l0.123,1.961c-0.525,0.176-1.361,0.351-2.413,0.351c-1.27,0-2.29-0.41-2.94-1.083
					c-0.742-0.791-1.052-2.049-1.052-3.717v-7.727h-2.321v-1.961h2.321v-2.634L420.778,261.235z"/>
				<path fill="#034EA2" d="M442.563,274.902c0,1.493,0.03,2.78,0.123,3.893h-2.413l-0.155-2.312h-0.062
					c-0.681,1.141-2.29,2.634-4.951,2.634c-2.352,0-5.168-1.258-5.168-6.204v-8.283h2.724v7.814c0,2.692,0.897,4.536,3.342,4.536
					c1.825,0,3.095-1.2,3.59-2.371c0.154-0.351,0.247-0.819,0.247-1.317v-8.663h2.724V274.902z"/>
				<path fill="#034EA2" d="M462.275,259.07v16.066c0,1.258,0.062,2.692,0.124,3.658h-2.414l-0.124-2.458h-0.093
					c-0.805,1.581-2.6,2.78-5.044,2.78c-3.62,0-6.437-2.897-6.437-7.199c-0.031-4.712,3.095-7.58,6.715-7.58
					c2.321,0,3.838,1.024,4.519,2.136h0.062v-7.403H462.275z M459.583,270.395c0-0.322-0.031-0.761-0.124-1.083
					c-0.402-1.609-1.888-2.956-3.93-2.956c-2.816,0-4.487,2.341-4.487,5.443c0,2.868,1.517,5.239,4.426,5.239
					c1.825,0,3.496-1.171,3.991-3.073c0.093-0.351,0.124-0.702,0.124-1.112V270.395z"/>
				<path fill="#034EA2" d="M470.631,272.18c0.062,3.483,2.383,4.917,5.137,4.917c1.949,0,3.156-0.322,4.146-0.732l0.495,1.844
					c-0.959,0.41-2.63,0.907-5.013,0.907c-4.611,0-7.365-2.897-7.365-7.17s2.661-7.609,7.024-7.609c4.92,0,6.189,4.039,6.189,6.644
					c0,0.527-0.031,0.907-0.093,1.2H470.631z M478.614,270.336c0.031-1.609-0.712-4.156-3.775-4.156
					c-2.785,0-3.961,2.371-4.177,4.156H478.614z"/>
				<path fill="#034EA2" d="M486.907,268.463c0-1.493-0.031-2.663-0.124-3.834h2.414l0.155,2.341h0.062
					c0.742-1.317,2.476-2.634,4.951-2.634c2.073,0,5.291,1.17,5.291,6.029v8.429h-2.723v-8.166c0-2.283-0.897-4.185-3.466-4.185
					c-1.764,0-3.156,1.2-3.651,2.634c-0.124,0.322-0.186,0.761-0.186,1.2v8.517h-2.724V268.463z"/>
				<path fill="#034EA2" d="M509.528,261.235v3.395h3.899v1.961h-3.899v7.639c0,1.756,0.526,2.751,2.042,2.751
					c0.743,0,1.177-0.059,1.579-0.176l0.123,1.961c-0.525,0.176-1.361,0.351-2.413,0.351c-1.27,0-2.29-0.41-2.94-1.083
					c-0.742-0.791-1.052-2.049-1.052-3.717v-7.727h-2.321v-1.961h2.321v-2.634L509.528,261.235z"/>
				<path fill="#034EA2" d="M532.148,271.595c0,5.239-3.868,7.521-7.457,7.521c-4.023,0-7.18-2.81-7.18-7.287
					c0-4.712,3.312-7.492,7.427-7.492C529.24,264.337,532.148,267.293,532.148,271.595z M520.297,271.741
					c0,3.102,1.856,5.443,4.518,5.443c2.6,0,4.549-2.312,4.549-5.502c0-2.4-1.269-5.414-4.486-5.414
					C521.689,266.269,520.297,269.078,520.297,271.741z M528.396,259.07l-3.272,3.628h-1.918l2.333-3.628H528.396z"/>
				<path fill="#034EA2" d="M538.74,264.629l2.012,7.2c0.402,1.581,0.805,3.043,1.083,4.507h0.093
					c0.341-1.434,0.836-2.956,1.331-4.478l2.444-7.229h2.29l2.32,7.083c0.558,1.698,0.99,3.19,1.331,4.624h0.093
					c0.248-1.434,0.649-2.926,1.145-4.595l2.136-7.112h2.692l-4.828,14.165h-2.476l-2.289-6.761c-0.526-1.58-0.96-2.985-1.331-4.653
					h-0.062c-0.372,1.698-0.836,3.161-1.362,4.683l-2.413,6.731h-2.476l-4.519-14.165H538.74z"/>
			</g>
		</g>
	</g>
</g>
</svg>
